<mxfile host="app.diagrams.net" agent="Mozilla/5.0 (Windows NT 10.0; Win64; x64) AppleWebKit/537.36 (KHTML, like Gecko) Chrome/134.0.0.0 Safari/537.36 Edg/134.0.0.0" version="26.1.3">
  <diagram name="Page-1" id="Z-w5uVbWQNLHRJEjYixE">
    <mxGraphModel dx="1224" dy="1133" grid="1" gridSize="10" guides="1" tooltips="1" connect="1" arrows="1" fold="1" page="1" pageScale="1" pageWidth="850" pageHeight="1100" math="0" shadow="0">
      <root>
        <mxCell id="0" />
        <mxCell id="1" parent="0" />
        <mxCell id="C1muyR43qbv9BoLMnWRT-134" value="" style="rounded=0;whiteSpace=wrap;html=1;" vertex="1" parent="1">
          <mxGeometry x="590" y="825" width="240" height="505" as="geometry" />
        </mxCell>
        <mxCell id="C1muyR43qbv9BoLMnWRT-1" value="" style="rounded=0;whiteSpace=wrap;html=1;" vertex="1" parent="1">
          <mxGeometry x="50" y="110" width="280" height="330" as="geometry" />
        </mxCell>
        <mxCell id="C1muyR43qbv9BoLMnWRT-2" value="Home/Landing Page" style="text;strokeColor=none;align=center;fillColor=none;html=1;verticalAlign=middle;whiteSpace=wrap;rounded=0;" vertex="1" parent="1">
          <mxGeometry x="145" y="60" width="90" height="30" as="geometry" />
        </mxCell>
        <mxCell id="C1muyR43qbv9BoLMnWRT-3" value="Name of LMS" style="text;strokeColor=none;align=center;fillColor=none;html=1;verticalAlign=middle;whiteSpace=wrap;rounded=0;" vertex="1" parent="1">
          <mxGeometry x="120" y="190" width="140" height="30" as="geometry" />
        </mxCell>
        <mxCell id="C1muyR43qbv9BoLMnWRT-4" value="Welcome Message" style="text;strokeColor=none;align=center;fillColor=none;html=1;verticalAlign=middle;whiteSpace=wrap;rounded=0;" vertex="1" parent="1">
          <mxGeometry x="120" y="220" width="140" height="30" as="geometry" />
        </mxCell>
        <mxCell id="C1muyR43qbv9BoLMnWRT-5" value="" style="rounded=1;whiteSpace=wrap;html=1;" vertex="1" parent="1">
          <mxGeometry x="160" y="260" width="60" height="30" as="geometry" />
        </mxCell>
        <mxCell id="C1muyR43qbv9BoLMnWRT-6" value="Register" style="text;strokeColor=none;align=center;fillColor=none;html=1;verticalAlign=middle;whiteSpace=wrap;rounded=0;movable=1;resizable=1;rotatable=1;deletable=1;editable=1;locked=0;connectable=1;" vertex="1" parent="1">
          <mxGeometry x="160" y="260" width="60" height="30" as="geometry" />
        </mxCell>
        <mxCell id="C1muyR43qbv9BoLMnWRT-10" value="" style="rounded=1;whiteSpace=wrap;html=1;" vertex="1" parent="1">
          <mxGeometry x="160" y="300" width="60" height="30" as="geometry" />
        </mxCell>
        <mxCell id="C1muyR43qbv9BoLMnWRT-8" value="Login" style="text;strokeColor=none;align=center;fillColor=none;html=1;verticalAlign=middle;whiteSpace=wrap;rounded=0;movable=1;resizable=1;rotatable=1;deletable=1;editable=1;locked=0;connectable=1;" vertex="1" parent="1">
          <mxGeometry x="160" y="300" width="60" height="30" as="geometry" />
        </mxCell>
        <mxCell id="C1muyR43qbv9BoLMnWRT-11" value="" style="endArrow=classic;html=1;rounded=0;exitX=1;exitY=0.5;exitDx=0;exitDy=0;entryX=0;entryY=0.5;entryDx=0;entryDy=0;" edge="1" parent="1" source="C1muyR43qbv9BoLMnWRT-1" target="C1muyR43qbv9BoLMnWRT-13">
          <mxGeometry width="50" height="50" relative="1" as="geometry">
            <mxPoint x="400" y="200" as="sourcePoint" />
            <mxPoint x="450" y="150" as="targetPoint" />
          </mxGeometry>
        </mxCell>
        <mxCell id="C1muyR43qbv9BoLMnWRT-12" value="Register Page" style="text;strokeColor=none;align=center;fillColor=none;html=1;verticalAlign=middle;whiteSpace=wrap;rounded=0;" vertex="1" parent="1">
          <mxGeometry x="560" y="10" width="60" height="30" as="geometry" />
        </mxCell>
        <mxCell id="C1muyR43qbv9BoLMnWRT-40" style="edgeStyle=orthogonalEdgeStyle;rounded=0;orthogonalLoop=1;jettySize=auto;html=1;exitX=0.5;exitY=1;exitDx=0;exitDy=0;entryX=0.5;entryY=0;entryDx=0;entryDy=0;" edge="1" parent="1" source="C1muyR43qbv9BoLMnWRT-13" target="C1muyR43qbv9BoLMnWRT-37">
          <mxGeometry relative="1" as="geometry" />
        </mxCell>
        <mxCell id="C1muyR43qbv9BoLMnWRT-13" value="" style="rounded=0;whiteSpace=wrap;html=1;" vertex="1" parent="1">
          <mxGeometry x="450" y="50" width="280" height="340" as="geometry" />
        </mxCell>
        <mxCell id="C1muyR43qbv9BoLMnWRT-14" value="Name of LMS" style="text;strokeColor=none;align=center;fillColor=none;html=1;verticalAlign=middle;whiteSpace=wrap;rounded=0;" vertex="1" parent="1">
          <mxGeometry x="520" y="80" width="140" height="30" as="geometry" />
        </mxCell>
        <mxCell id="C1muyR43qbv9BoLMnWRT-15" value="" style="whiteSpace=wrap;html=1;aspect=fixed;" vertex="1" parent="1">
          <mxGeometry x="493.75" y="123.75" width="192.5" height="192.5" as="geometry" />
        </mxCell>
        <mxCell id="C1muyR43qbv9BoLMnWRT-34" value="" style="rounded=1;whiteSpace=wrap;html=1;" vertex="1" parent="1">
          <mxGeometry x="545" y="280" width="90" height="20" as="geometry" />
        </mxCell>
        <mxCell id="C1muyR43qbv9BoLMnWRT-35" style="edgeStyle=orthogonalEdgeStyle;rounded=0;orthogonalLoop=1;jettySize=auto;html=1;exitX=0.5;exitY=1;exitDx=0;exitDy=0;" edge="1" parent="1" source="C1muyR43qbv9BoLMnWRT-34" target="C1muyR43qbv9BoLMnWRT-34">
          <mxGeometry relative="1" as="geometry" />
        </mxCell>
        <mxCell id="C1muyR43qbv9BoLMnWRT-26" value="" style="group" vertex="1" connectable="0" parent="1">
          <mxGeometry x="540" y="140" width="100" height="140" as="geometry" />
        </mxCell>
        <mxCell id="C1muyR43qbv9BoLMnWRT-21" value="Full Name" style="text;strokeColor=none;align=center;fillColor=none;html=1;verticalAlign=middle;whiteSpace=wrap;rounded=0;" vertex="1" parent="C1muyR43qbv9BoLMnWRT-26">
          <mxGeometry width="100" height="28" as="geometry" />
        </mxCell>
        <mxCell id="C1muyR43qbv9BoLMnWRT-22" value="Email" style="text;strokeColor=none;align=center;fillColor=none;html=1;verticalAlign=middle;whiteSpace=wrap;rounded=0;" vertex="1" parent="C1muyR43qbv9BoLMnWRT-26">
          <mxGeometry y="28" width="100" height="28" as="geometry" />
        </mxCell>
        <mxCell id="C1muyR43qbv9BoLMnWRT-23" value="Password" style="text;strokeColor=none;align=center;fillColor=none;html=1;verticalAlign=middle;whiteSpace=wrap;rounded=0;" vertex="1" parent="C1muyR43qbv9BoLMnWRT-26">
          <mxGeometry y="56" width="100" height="28" as="geometry" />
        </mxCell>
        <mxCell id="C1muyR43qbv9BoLMnWRT-24" value="Address" style="text;strokeColor=none;align=center;fillColor=none;html=1;verticalAlign=middle;whiteSpace=wrap;rounded=0;" vertex="1" parent="C1muyR43qbv9BoLMnWRT-26">
          <mxGeometry y="84" width="100" height="28" as="geometry" />
        </mxCell>
        <mxCell id="C1muyR43qbv9BoLMnWRT-25" value="Contact Number" style="text;strokeColor=none;align=center;fillColor=none;html=1;verticalAlign=middle;whiteSpace=wrap;rounded=0;" vertex="1" parent="C1muyR43qbv9BoLMnWRT-26">
          <mxGeometry y="112" width="100" height="28" as="geometry" />
        </mxCell>
        <mxCell id="C1muyR43qbv9BoLMnWRT-36" value="Register" style="text;strokeColor=none;align=center;fillColor=none;html=1;verticalAlign=middle;whiteSpace=wrap;rounded=0;" vertex="1" parent="1">
          <mxGeometry x="560" y="275" width="60" height="30" as="geometry" />
        </mxCell>
        <mxCell id="C1muyR43qbv9BoLMnWRT-219" style="edgeStyle=orthogonalEdgeStyle;rounded=0;orthogonalLoop=1;jettySize=auto;html=1;entryX=0.5;entryY=0;entryDx=0;entryDy=0;" edge="1" parent="1" source="C1muyR43qbv9BoLMnWRT-37" target="C1muyR43qbv9BoLMnWRT-134">
          <mxGeometry relative="1" as="geometry" />
        </mxCell>
        <mxCell id="C1muyR43qbv9BoLMnWRT-37" value="" style="rounded=0;whiteSpace=wrap;html=1;" vertex="1" parent="1">
          <mxGeometry x="450" y="420" width="280" height="240" as="geometry" />
        </mxCell>
        <mxCell id="C1muyR43qbv9BoLMnWRT-38" value="Name of LMS" style="text;strokeColor=none;align=center;fillColor=none;html=1;verticalAlign=middle;whiteSpace=wrap;rounded=0;" vertex="1" parent="1">
          <mxGeometry x="520" y="450" width="140" height="30" as="geometry" />
        </mxCell>
        <mxCell id="C1muyR43qbv9BoLMnWRT-41" value="" style="endArrow=classic;html=1;rounded=0;exitX=1;exitY=0.5;exitDx=0;exitDy=0;entryX=0;entryY=0.5;entryDx=0;entryDy=0;" edge="1" parent="1" source="C1muyR43qbv9BoLMnWRT-1" target="C1muyR43qbv9BoLMnWRT-37">
          <mxGeometry width="50" height="50" relative="1" as="geometry">
            <mxPoint x="420" y="560" as="sourcePoint" />
            <mxPoint x="470" y="510" as="targetPoint" />
          </mxGeometry>
        </mxCell>
        <mxCell id="C1muyR43qbv9BoLMnWRT-42" value="" style="rounded=1;whiteSpace=wrap;html=1;" vertex="1" parent="1">
          <mxGeometry x="635" y="510" width="50" height="30" as="geometry" />
        </mxCell>
        <mxCell id="C1muyR43qbv9BoLMnWRT-43" value="Login" style="text;strokeColor=none;align=center;fillColor=none;html=1;verticalAlign=middle;whiteSpace=wrap;rounded=0;" vertex="1" parent="1">
          <mxGeometry x="630" y="510" width="60" height="30" as="geometry" />
        </mxCell>
        <mxCell id="C1muyR43qbv9BoLMnWRT-46" value="" style="group" vertex="1" connectable="0" parent="1">
          <mxGeometry x="500" y="510" width="130" height="30" as="geometry" />
        </mxCell>
        <mxCell id="C1muyR43qbv9BoLMnWRT-44" value="Email" style="text;strokeColor=none;align=center;fillColor=none;html=1;verticalAlign=middle;whiteSpace=wrap;rounded=0;" vertex="1" parent="C1muyR43qbv9BoLMnWRT-46">
          <mxGeometry width="60" height="30" as="geometry" />
        </mxCell>
        <mxCell id="C1muyR43qbv9BoLMnWRT-45" value="Password" style="text;strokeColor=none;align=center;fillColor=none;html=1;verticalAlign=middle;whiteSpace=wrap;rounded=0;" vertex="1" parent="C1muyR43qbv9BoLMnWRT-46">
          <mxGeometry x="70" width="60" height="30" as="geometry" />
        </mxCell>
        <mxCell id="C1muyR43qbv9BoLMnWRT-48" value="" style="endArrow=classic;html=1;rounded=0;entryX=1;entryY=0.5;entryDx=0;entryDy=0;exitX=0;exitY=0.75;exitDx=0;exitDy=0;" edge="1" parent="1" source="C1muyR43qbv9BoLMnWRT-37" target="C1muyR43qbv9BoLMnWRT-49">
          <mxGeometry width="50" height="50" relative="1" as="geometry">
            <mxPoint x="440" y="600" as="sourcePoint" />
            <mxPoint x="350" y="550" as="targetPoint" />
          </mxGeometry>
        </mxCell>
        <mxCell id="C1muyR43qbv9BoLMnWRT-68" style="edgeStyle=orthogonalEdgeStyle;rounded=0;orthogonalLoop=1;jettySize=auto;html=1;exitX=0.5;exitY=1;exitDx=0;exitDy=0;entryX=0.5;entryY=0;entryDx=0;entryDy=0;" edge="1" parent="1" source="C1muyR43qbv9BoLMnWRT-49" target="C1muyR43qbv9BoLMnWRT-67">
          <mxGeometry relative="1" as="geometry" />
        </mxCell>
        <mxCell id="C1muyR43qbv9BoLMnWRT-106" style="edgeStyle=orthogonalEdgeStyle;rounded=0;orthogonalLoop=1;jettySize=auto;html=1;exitX=0.75;exitY=1;exitDx=0;exitDy=0;entryX=0.5;entryY=0;entryDx=0;entryDy=0;" edge="1" parent="1" source="C1muyR43qbv9BoLMnWRT-49" target="C1muyR43qbv9BoLMnWRT-105">
          <mxGeometry relative="1" as="geometry" />
        </mxCell>
        <mxCell id="C1muyR43qbv9BoLMnWRT-49" value="" style="rounded=0;whiteSpace=wrap;html=1;" vertex="1" parent="1">
          <mxGeometry x="50" y="510" width="280" height="270" as="geometry" />
        </mxCell>
        <mxCell id="C1muyR43qbv9BoLMnWRT-50" value="" style="shape=table;html=1;whiteSpace=wrap;startSize=0;container=1;collapsible=0;childLayout=tableLayout;columnLines=0;rowLines=0;fontSize=16;strokeColor=default;" vertex="1" parent="1">
          <mxGeometry x="100" y="570" width="170" height="160" as="geometry" />
        </mxCell>
        <mxCell id="C1muyR43qbv9BoLMnWRT-51" value="" style="shape=tableRow;horizontal=0;startSize=0;swimlaneHead=0;swimlaneBody=0;top=0;left=0;bottom=0;right=0;collapsible=0;dropTarget=0;fillColor=none;points=[[0,0.5],[1,0.5]];portConstraint=eastwest;fontSize=16;strokeColor=inherit;" vertex="1" parent="C1muyR43qbv9BoLMnWRT-50">
          <mxGeometry width="170" height="40" as="geometry" />
        </mxCell>
        <mxCell id="C1muyR43qbv9BoLMnWRT-52" value="" style="shape=partialRectangle;html=1;whiteSpace=wrap;connectable=0;fillColor=none;top=0;left=0;bottom=0;right=0;overflow=hidden;fontSize=12;strokeColor=inherit;" vertex="1" parent="C1muyR43qbv9BoLMnWRT-51">
          <mxGeometry width="20" height="40" as="geometry">
            <mxRectangle width="20" height="40" as="alternateBounds" />
          </mxGeometry>
        </mxCell>
        <mxCell id="C1muyR43qbv9BoLMnWRT-53" value="Admin Portal" style="shape=partialRectangle;html=1;whiteSpace=wrap;connectable=0;fillColor=none;top=0;left=0;bottom=0;right=0;overflow=hidden;fontSize=12;strokeColor=inherit;" vertex="1" parent="C1muyR43qbv9BoLMnWRT-51">
          <mxGeometry x="20" width="130" height="40" as="geometry">
            <mxRectangle width="130" height="40" as="alternateBounds" />
          </mxGeometry>
        </mxCell>
        <mxCell id="C1muyR43qbv9BoLMnWRT-54" value="" style="shape=partialRectangle;html=1;whiteSpace=wrap;connectable=0;fillColor=none;top=0;left=0;bottom=0;right=0;overflow=hidden;fontSize=12;strokeColor=inherit;" vertex="1" parent="C1muyR43qbv9BoLMnWRT-51">
          <mxGeometry x="150" width="20" height="40" as="geometry">
            <mxRectangle width="20" height="40" as="alternateBounds" />
          </mxGeometry>
        </mxCell>
        <mxCell id="C1muyR43qbv9BoLMnWRT-55" value="" style="shape=tableRow;horizontal=0;startSize=0;swimlaneHead=0;swimlaneBody=0;top=0;left=0;bottom=0;right=0;collapsible=0;dropTarget=0;fillColor=none;points=[[0,0.5],[1,0.5]];portConstraint=eastwest;fontSize=16;strokeColor=inherit;" vertex="1" parent="C1muyR43qbv9BoLMnWRT-50">
          <mxGeometry y="40" width="170" height="60" as="geometry" />
        </mxCell>
        <mxCell id="C1muyR43qbv9BoLMnWRT-56" value="" style="shape=partialRectangle;html=1;whiteSpace=wrap;connectable=0;fillColor=none;top=0;left=0;bottom=0;right=0;overflow=hidden;fontSize=12;strokeColor=inherit;" vertex="1" parent="C1muyR43qbv9BoLMnWRT-55">
          <mxGeometry width="20" height="60" as="geometry">
            <mxRectangle width="20" height="60" as="alternateBounds" />
          </mxGeometry>
        </mxCell>
        <mxCell id="C1muyR43qbv9BoLMnWRT-57" value="Welcome Message" style="shape=partialRectangle;html=1;whiteSpace=wrap;connectable=0;fillColor=none;top=0;left=0;bottom=0;right=0;overflow=hidden;fontSize=12;strokeColor=inherit;" vertex="1" parent="C1muyR43qbv9BoLMnWRT-55">
          <mxGeometry x="20" width="130" height="60" as="geometry">
            <mxRectangle width="130" height="60" as="alternateBounds" />
          </mxGeometry>
        </mxCell>
        <mxCell id="C1muyR43qbv9BoLMnWRT-58" value="" style="shape=partialRectangle;html=1;whiteSpace=wrap;connectable=0;fillColor=none;top=0;left=0;bottom=0;right=0;overflow=hidden;fontSize=12;strokeColor=inherit;" vertex="1" parent="C1muyR43qbv9BoLMnWRT-55">
          <mxGeometry x="150" width="20" height="60" as="geometry">
            <mxRectangle width="20" height="60" as="alternateBounds" />
          </mxGeometry>
        </mxCell>
        <mxCell id="C1muyR43qbv9BoLMnWRT-59" value="" style="shape=tableRow;horizontal=0;startSize=0;swimlaneHead=0;swimlaneBody=0;top=0;left=0;bottom=0;right=0;collapsible=0;dropTarget=0;fillColor=none;points=[[0,0.5],[1,0.5]];portConstraint=eastwest;fontSize=16;strokeColor=inherit;" vertex="1" parent="C1muyR43qbv9BoLMnWRT-50">
          <mxGeometry y="100" width="170" height="60" as="geometry" />
        </mxCell>
        <mxCell id="C1muyR43qbv9BoLMnWRT-60" value="" style="shape=partialRectangle;html=1;whiteSpace=wrap;connectable=0;fillColor=none;top=0;left=0;bottom=0;right=0;overflow=hidden;fontSize=12;strokeColor=inherit;" vertex="1" parent="C1muyR43qbv9BoLMnWRT-59">
          <mxGeometry width="20" height="60" as="geometry">
            <mxRectangle width="20" height="60" as="alternateBounds" />
          </mxGeometry>
        </mxCell>
        <mxCell id="C1muyR43qbv9BoLMnWRT-61" value="" style="shape=partialRectangle;html=1;whiteSpace=wrap;connectable=0;fillColor=none;top=0;left=0;bottom=0;right=0;overflow=hidden;fontSize=12;strokeColor=inherit;" vertex="1" parent="C1muyR43qbv9BoLMnWRT-59">
          <mxGeometry x="20" width="130" height="60" as="geometry">
            <mxRectangle width="130" height="60" as="alternateBounds" />
          </mxGeometry>
        </mxCell>
        <mxCell id="C1muyR43qbv9BoLMnWRT-62" value="" style="shape=partialRectangle;html=1;whiteSpace=wrap;connectable=0;fillColor=none;top=0;left=0;bottom=0;right=0;overflow=hidden;fontSize=12;strokeColor=inherit;" vertex="1" parent="C1muyR43qbv9BoLMnWRT-59">
          <mxGeometry x="150" width="20" height="60" as="geometry">
            <mxRectangle width="20" height="60" as="alternateBounds" />
          </mxGeometry>
        </mxCell>
        <mxCell id="C1muyR43qbv9BoLMnWRT-64" value="Manage Books" style="rounded=1;whiteSpace=wrap;html=1;" vertex="1" parent="1">
          <mxGeometry x="140" y="660" width="90" height="20" as="geometry" />
        </mxCell>
        <mxCell id="C1muyR43qbv9BoLMnWRT-65" value="Manage Users" style="rounded=1;whiteSpace=wrap;html=1;" vertex="1" parent="1">
          <mxGeometry x="140" y="690" width="90" height="20" as="geometry" />
        </mxCell>
        <mxCell id="C1muyR43qbv9BoLMnWRT-66" value="Admin Portal" style="text;html=1;align=center;verticalAlign=middle;resizable=0;points=[];autosize=1;strokeColor=none;fillColor=none;" vertex="1" parent="1">
          <mxGeometry x="140" y="468" width="90" height="30" as="geometry" />
        </mxCell>
        <mxCell id="C1muyR43qbv9BoLMnWRT-69" value="Book Management" style="text;html=1;align=center;verticalAlign=middle;resizable=0;points=[];autosize=1;strokeColor=none;fillColor=none;" vertex="1" parent="1">
          <mxGeometry x="25" y="790" width="120" height="30" as="geometry" />
        </mxCell>
        <mxCell id="C1muyR43qbv9BoLMnWRT-95" value="Name of LMS" style="text;strokeColor=none;align=center;fillColor=none;html=1;verticalAlign=middle;whiteSpace=wrap;rounded=0;" vertex="1" parent="1">
          <mxGeometry x="115" y="535" width="140" height="30" as="geometry" />
        </mxCell>
        <mxCell id="C1muyR43qbv9BoLMnWRT-107" value="User Management" style="text;html=1;align=center;verticalAlign=middle;resizable=0;points=[];autosize=1;strokeColor=none;fillColor=none;" vertex="1" parent="1">
          <mxGeometry x="430" y="790" width="120" height="30" as="geometry" />
        </mxCell>
        <mxCell id="C1muyR43qbv9BoLMnWRT-135" value="" style="group" vertex="1" connectable="0" parent="1">
          <mxGeometry x="310" y="820" width="250" height="510" as="geometry" />
        </mxCell>
        <mxCell id="C1muyR43qbv9BoLMnWRT-105" value="" style="rounded=0;whiteSpace=wrap;html=1;" vertex="1" parent="C1muyR43qbv9BoLMnWRT-135">
          <mxGeometry width="250" height="510" as="geometry" />
        </mxCell>
        <mxCell id="C1muyR43qbv9BoLMnWRT-124" value="" style="group" vertex="1" connectable="0" parent="C1muyR43qbv9BoLMnWRT-135">
          <mxGeometry x="59.78260869565217" y="360" width="141.30434782608694" height="130" as="geometry" />
        </mxCell>
        <mxCell id="C1muyR43qbv9BoLMnWRT-109" value="Title&lt;div&gt;Author&lt;/div&gt;&lt;div&gt;ISBN&lt;/div&gt;&lt;div&gt;Category ID&lt;/div&gt;&lt;div&gt;Publication Year&lt;/div&gt;&lt;div&gt;&lt;br&gt;&lt;/div&gt;&lt;div&gt;&lt;br&gt;&lt;/div&gt;" style="whiteSpace=wrap;html=1;aspect=fixed;" vertex="1" parent="C1muyR43qbv9BoLMnWRT-124">
          <mxGeometry width="130" height="130" as="geometry" />
        </mxCell>
        <mxCell id="C1muyR43qbv9BoLMnWRT-110" value="Add User" style="rounded=1;whiteSpace=wrap;html=1;" vertex="1" parent="C1muyR43qbv9BoLMnWRT-124">
          <mxGeometry x="19.02173913043478" y="90" width="103.26086956521739" height="30" as="geometry" />
        </mxCell>
        <mxCell id="C1muyR43qbv9BoLMnWRT-125" value="" style="group" vertex="1" connectable="0" parent="C1muyR43qbv9BoLMnWRT-135">
          <mxGeometry x="59.78260869565217" y="130" width="141.30434782608694" height="230" as="geometry" />
        </mxCell>
        <mxCell id="C1muyR43qbv9BoLMnWRT-129" value="" style="group" vertex="1" connectable="0" parent="C1muyR43qbv9BoLMnWRT-125">
          <mxGeometry width="141.30434782608694" height="230" as="geometry" />
        </mxCell>
        <mxCell id="C1muyR43qbv9BoLMnWRT-119" value="" style="group" vertex="1" connectable="0" parent="C1muyR43qbv9BoLMnWRT-129">
          <mxGeometry y="140" width="141.30434782608694" height="90" as="geometry" />
        </mxCell>
        <mxCell id="C1muyR43qbv9BoLMnWRT-120" value="User 3&lt;div&gt;&lt;br&gt;&lt;/div&gt;&lt;div&gt;&lt;br&gt;&lt;/div&gt;" style="rounded=0;whiteSpace=wrap;html=1;" vertex="1" parent="C1muyR43qbv9BoLMnWRT-119">
          <mxGeometry width="141.30434782608694" height="60" as="geometry" />
        </mxCell>
        <mxCell id="C1muyR43qbv9BoLMnWRT-121" value="Edit" style="rounded=1;whiteSpace=wrap;html=1;" vertex="1" parent="C1muyR43qbv9BoLMnWRT-119">
          <mxGeometry x="10.869565217391305" y="30" width="43.47826086956522" height="20" as="geometry" />
        </mxCell>
        <mxCell id="C1muyR43qbv9BoLMnWRT-122" value="Delete" style="rounded=1;whiteSpace=wrap;html=1;" vertex="1" parent="C1muyR43qbv9BoLMnWRT-119">
          <mxGeometry x="65.21739130434783" y="30" width="43.47826086956522" height="20" as="geometry" />
        </mxCell>
        <mxCell id="C1muyR43qbv9BoLMnWRT-126" value="Add User" style="text;strokeColor=none;align=center;fillColor=none;html=1;verticalAlign=middle;whiteSpace=wrap;rounded=0;" vertex="1" parent="C1muyR43qbv9BoLMnWRT-119">
          <mxGeometry x="38.04347826086956" y="60" width="65.21739130434783" height="30" as="geometry" />
        </mxCell>
        <mxCell id="C1muyR43qbv9BoLMnWRT-111" value="" style="group" vertex="1" connectable="0" parent="C1muyR43qbv9BoLMnWRT-129">
          <mxGeometry width="141.30434782608694" height="60" as="geometry" />
        </mxCell>
        <mxCell id="C1muyR43qbv9BoLMnWRT-112" value="&lt;div&gt;User 1&lt;/div&gt;&lt;div&gt;&lt;br&gt;&lt;/div&gt;&lt;div&gt;&lt;br&gt;&lt;/div&gt;" style="rounded=0;whiteSpace=wrap;html=1;" vertex="1" parent="C1muyR43qbv9BoLMnWRT-111">
          <mxGeometry width="141.30434782608694" height="60" as="geometry" />
        </mxCell>
        <mxCell id="C1muyR43qbv9BoLMnWRT-113" value="Edit" style="rounded=1;whiteSpace=wrap;html=1;" vertex="1" parent="C1muyR43qbv9BoLMnWRT-111">
          <mxGeometry x="10.869565217391305" y="30" width="43.47826086956522" height="20" as="geometry" />
        </mxCell>
        <mxCell id="C1muyR43qbv9BoLMnWRT-114" value="Delete" style="rounded=1;whiteSpace=wrap;html=1;" vertex="1" parent="C1muyR43qbv9BoLMnWRT-111">
          <mxGeometry x="65.21739130434783" y="30" width="43.47826086956522" height="20" as="geometry" />
        </mxCell>
        <mxCell id="C1muyR43qbv9BoLMnWRT-115" value="" style="group" vertex="1" connectable="0" parent="C1muyR43qbv9BoLMnWRT-129">
          <mxGeometry y="70" width="141.30434782608694" height="60" as="geometry" />
        </mxCell>
        <mxCell id="C1muyR43qbv9BoLMnWRT-116" value="User 2&lt;div&gt;&lt;br&gt;&lt;/div&gt;&lt;div&gt;&lt;br&gt;&lt;/div&gt;" style="rounded=0;whiteSpace=wrap;html=1;" vertex="1" parent="C1muyR43qbv9BoLMnWRT-115">
          <mxGeometry width="141.30434782608694" height="60" as="geometry" />
        </mxCell>
        <mxCell id="C1muyR43qbv9BoLMnWRT-117" value="Edit" style="rounded=1;whiteSpace=wrap;html=1;" vertex="1" parent="C1muyR43qbv9BoLMnWRT-115">
          <mxGeometry x="10.869565217391305" y="30" width="43.47826086956522" height="20" as="geometry" />
        </mxCell>
        <mxCell id="C1muyR43qbv9BoLMnWRT-118" value="Delete" style="rounded=1;whiteSpace=wrap;html=1;" vertex="1" parent="C1muyR43qbv9BoLMnWRT-115">
          <mxGeometry x="65.21739130434783" y="30" width="43.47826086956522" height="20" as="geometry" />
        </mxCell>
        <mxCell id="C1muyR43qbv9BoLMnWRT-127" value="Search Functions" style="rounded=0;whiteSpace=wrap;html=1;" vertex="1" parent="C1muyR43qbv9BoLMnWRT-135">
          <mxGeometry x="65.21739130434783" y="90" width="130.43478260869566" height="30" as="geometry" />
        </mxCell>
        <mxCell id="C1muyR43qbv9BoLMnWRT-131" value="Users List" style="text;html=1;align=center;verticalAlign=middle;resizable=0;points=[];autosize=1;strokeColor=none;fillColor=none;" vertex="1" parent="C1muyR43qbv9BoLMnWRT-135">
          <mxGeometry x="86.95652173913044" y="60" width="80" height="30" as="geometry" />
        </mxCell>
        <mxCell id="C1muyR43qbv9BoLMnWRT-132" value="Name of LMS" style="text;strokeColor=none;align=center;fillColor=none;html=1;verticalAlign=middle;whiteSpace=wrap;rounded=0;" vertex="1" parent="C1muyR43qbv9BoLMnWRT-135">
          <mxGeometry x="54.347826086956516" y="20" width="152.17391304347825" height="30" as="geometry" />
        </mxCell>
        <mxCell id="C1muyR43qbv9BoLMnWRT-136" value="" style="group" vertex="1" connectable="0" parent="1">
          <mxGeometry x="10" y="820" width="260" height="510" as="geometry" />
        </mxCell>
        <mxCell id="C1muyR43qbv9BoLMnWRT-67" value="" style="rounded=0;whiteSpace=wrap;html=1;" vertex="1" parent="C1muyR43qbv9BoLMnWRT-136">
          <mxGeometry width="260" height="510" as="geometry" />
        </mxCell>
        <mxCell id="C1muyR43qbv9BoLMnWRT-96" value="Name of LMS" style="text;strokeColor=none;align=center;fillColor=none;html=1;verticalAlign=middle;whiteSpace=wrap;rounded=0;" vertex="1" parent="C1muyR43qbv9BoLMnWRT-136">
          <mxGeometry x="59.58333333333333" y="10" width="151.66666666666666" height="30" as="geometry" />
        </mxCell>
        <mxCell id="C1muyR43qbv9BoLMnWRT-100" value="" style="group" vertex="1" connectable="0" parent="C1muyR43qbv9BoLMnWRT-136">
          <mxGeometry x="65" y="140" width="140.83333333333331" height="340" as="geometry" />
        </mxCell>
        <mxCell id="C1muyR43qbv9BoLMnWRT-70" value="Title&lt;div&gt;Author&lt;/div&gt;&lt;div&gt;ISBN&lt;/div&gt;&lt;div&gt;Category ID&lt;/div&gt;&lt;div&gt;Publication Year&lt;/div&gt;&lt;div&gt;&lt;br&gt;&lt;/div&gt;&lt;div&gt;&lt;br&gt;&lt;/div&gt;" style="whiteSpace=wrap;html=1;aspect=fixed;" vertex="1" parent="C1muyR43qbv9BoLMnWRT-100">
          <mxGeometry width="130" height="130" as="geometry" />
        </mxCell>
        <mxCell id="C1muyR43qbv9BoLMnWRT-79" value="Add Book" style="rounded=1;whiteSpace=wrap;html=1;" vertex="1" parent="C1muyR43qbv9BoLMnWRT-100">
          <mxGeometry x="18.958333333333332" y="90" width="102.91666666666666" height="30" as="geometry" />
        </mxCell>
        <mxCell id="C1muyR43qbv9BoLMnWRT-86" value="" style="group" vertex="1" connectable="0" parent="C1muyR43qbv9BoLMnWRT-100">
          <mxGeometry y="140" width="140.83333333333331" height="60" as="geometry" />
        </mxCell>
        <mxCell id="C1muyR43qbv9BoLMnWRT-82" value="Book 1&lt;div&gt;&lt;br&gt;&lt;/div&gt;&lt;div&gt;&lt;br&gt;&lt;/div&gt;" style="rounded=0;whiteSpace=wrap;html=1;" vertex="1" parent="C1muyR43qbv9BoLMnWRT-86">
          <mxGeometry width="140.83333333333331" height="60" as="geometry" />
        </mxCell>
        <mxCell id="C1muyR43qbv9BoLMnWRT-83" value="Edit" style="rounded=1;whiteSpace=wrap;html=1;" vertex="1" parent="C1muyR43qbv9BoLMnWRT-86">
          <mxGeometry x="10.833333333333332" y="30" width="43.33333333333333" height="20" as="geometry" />
        </mxCell>
        <mxCell id="C1muyR43qbv9BoLMnWRT-84" value="Delete" style="rounded=1;whiteSpace=wrap;html=1;" vertex="1" parent="C1muyR43qbv9BoLMnWRT-86">
          <mxGeometry x="65" y="30" width="43.33333333333333" height="20" as="geometry" />
        </mxCell>
        <mxCell id="C1muyR43qbv9BoLMnWRT-87" value="" style="group" vertex="1" connectable="0" parent="C1muyR43qbv9BoLMnWRT-100">
          <mxGeometry y="210" width="140.83333333333331" height="60" as="geometry" />
        </mxCell>
        <mxCell id="C1muyR43qbv9BoLMnWRT-88" value="Book 2&lt;div&gt;&lt;br&gt;&lt;/div&gt;&lt;div&gt;&lt;br&gt;&lt;/div&gt;" style="rounded=0;whiteSpace=wrap;html=1;" vertex="1" parent="C1muyR43qbv9BoLMnWRT-87">
          <mxGeometry width="140.83333333333331" height="60" as="geometry" />
        </mxCell>
        <mxCell id="C1muyR43qbv9BoLMnWRT-89" value="Edit" style="rounded=1;whiteSpace=wrap;html=1;" vertex="1" parent="C1muyR43qbv9BoLMnWRT-87">
          <mxGeometry x="10.833333333333332" y="30" width="43.33333333333333" height="20" as="geometry" />
        </mxCell>
        <mxCell id="C1muyR43qbv9BoLMnWRT-90" value="Delete" style="rounded=1;whiteSpace=wrap;html=1;" vertex="1" parent="C1muyR43qbv9BoLMnWRT-87">
          <mxGeometry x="65" y="30" width="43.33333333333333" height="20" as="geometry" />
        </mxCell>
        <mxCell id="C1muyR43qbv9BoLMnWRT-91" value="" style="group" vertex="1" connectable="0" parent="C1muyR43qbv9BoLMnWRT-100">
          <mxGeometry y="280" width="140.83333333333331" height="60" as="geometry" />
        </mxCell>
        <mxCell id="C1muyR43qbv9BoLMnWRT-92" value="Book 3&lt;div&gt;&lt;br&gt;&lt;/div&gt;&lt;div&gt;&lt;br&gt;&lt;/div&gt;" style="rounded=0;whiteSpace=wrap;html=1;" vertex="1" parent="C1muyR43qbv9BoLMnWRT-91">
          <mxGeometry width="140.83333333333331" height="60" as="geometry" />
        </mxCell>
        <mxCell id="C1muyR43qbv9BoLMnWRT-93" value="Edit" style="rounded=1;whiteSpace=wrap;html=1;" vertex="1" parent="C1muyR43qbv9BoLMnWRT-91">
          <mxGeometry x="10.833333333333332" y="30" width="43.33333333333333" height="20" as="geometry" />
        </mxCell>
        <mxCell id="C1muyR43qbv9BoLMnWRT-94" value="Delete" style="rounded=1;whiteSpace=wrap;html=1;" vertex="1" parent="C1muyR43qbv9BoLMnWRT-91">
          <mxGeometry x="65" y="30" width="43.33333333333333" height="20" as="geometry" />
        </mxCell>
        <mxCell id="C1muyR43qbv9BoLMnWRT-101" value="Search Functions" style="rounded=0;whiteSpace=wrap;html=1;" vertex="1" parent="C1muyR43qbv9BoLMnWRT-136">
          <mxGeometry x="70.41666666666666" y="100" width="130" height="30" as="geometry" />
        </mxCell>
        <mxCell id="C1muyR43qbv9BoLMnWRT-102" value="Book Management" style="text;strokeColor=none;align=center;fillColor=none;html=1;verticalAlign=middle;whiteSpace=wrap;rounded=0;" vertex="1" parent="C1muyR43qbv9BoLMnWRT-136">
          <mxGeometry x="54.166666666666664" y="60" width="151.66666666666666" height="30" as="geometry" />
        </mxCell>
        <mxCell id="C1muyR43qbv9BoLMnWRT-183" value="" style="group" vertex="1" connectable="0" parent="1">
          <mxGeometry x="640" y="930" width="140.83333333333326" height="60" as="geometry" />
        </mxCell>
        <mxCell id="C1muyR43qbv9BoLMnWRT-180" value="Book 1&lt;div&gt;&lt;br&gt;&lt;/div&gt;&lt;div&gt;&lt;br&gt;&lt;/div&gt;" style="rounded=0;whiteSpace=wrap;html=1;" vertex="1" parent="C1muyR43qbv9BoLMnWRT-183">
          <mxGeometry width="140.83333333333331" height="60" as="geometry" />
        </mxCell>
        <mxCell id="C1muyR43qbv9BoLMnWRT-181" value="Edit" style="rounded=1;whiteSpace=wrap;html=1;" vertex="1" parent="C1muyR43qbv9BoLMnWRT-183">
          <mxGeometry x="21.663333333333412" y="30" width="43.33333333333333" height="20" as="geometry" />
        </mxCell>
        <mxCell id="C1muyR43qbv9BoLMnWRT-182" value="Delete" style="rounded=1;whiteSpace=wrap;html=1;" vertex="1" parent="C1muyR43qbv9BoLMnWRT-183">
          <mxGeometry x="75.83000000000004" y="30" width="43.33333333333333" height="20" as="geometry" />
        </mxCell>
        <mxCell id="C1muyR43qbv9BoLMnWRT-184" value="" style="group" vertex="1" connectable="0" parent="1">
          <mxGeometry x="639.17" y="1000" width="140.83333333333326" height="60" as="geometry" />
        </mxCell>
        <mxCell id="C1muyR43qbv9BoLMnWRT-185" value="Book 2&lt;div&gt;&lt;br&gt;&lt;/div&gt;&lt;div&gt;&lt;br&gt;&lt;/div&gt;" style="rounded=0;whiteSpace=wrap;html=1;" vertex="1" parent="C1muyR43qbv9BoLMnWRT-184">
          <mxGeometry width="140.83333333333331" height="60" as="geometry" />
        </mxCell>
        <mxCell id="C1muyR43qbv9BoLMnWRT-186" value="Edit" style="rounded=1;whiteSpace=wrap;html=1;" vertex="1" parent="C1muyR43qbv9BoLMnWRT-184">
          <mxGeometry x="21.663333333333412" y="30" width="43.33333333333333" height="20" as="geometry" />
        </mxCell>
        <mxCell id="C1muyR43qbv9BoLMnWRT-187" value="Delete" style="rounded=1;whiteSpace=wrap;html=1;" vertex="1" parent="C1muyR43qbv9BoLMnWRT-184">
          <mxGeometry x="75.83000000000004" y="30" width="43.33333333333333" height="20" as="geometry" />
        </mxCell>
        <mxCell id="C1muyR43qbv9BoLMnWRT-188" value="" style="group" vertex="1" connectable="0" parent="1">
          <mxGeometry x="640" y="1070" width="140.83333333333326" height="60" as="geometry" />
        </mxCell>
        <mxCell id="C1muyR43qbv9BoLMnWRT-189" value="Book 3&lt;div&gt;&lt;br&gt;&lt;/div&gt;&lt;div&gt;&lt;br&gt;&lt;/div&gt;" style="rounded=0;whiteSpace=wrap;html=1;" vertex="1" parent="C1muyR43qbv9BoLMnWRT-188">
          <mxGeometry width="140.83333333333331" height="60" as="geometry" />
        </mxCell>
        <mxCell id="C1muyR43qbv9BoLMnWRT-190" value="Edit" style="rounded=1;whiteSpace=wrap;html=1;" vertex="1" parent="C1muyR43qbv9BoLMnWRT-188">
          <mxGeometry x="21.663333333333412" y="30" width="43.33333333333333" height="20" as="geometry" />
        </mxCell>
        <mxCell id="C1muyR43qbv9BoLMnWRT-191" value="Delete" style="rounded=1;whiteSpace=wrap;html=1;" vertex="1" parent="C1muyR43qbv9BoLMnWRT-188">
          <mxGeometry x="75.83000000000004" y="30" width="43.33333333333333" height="20" as="geometry" />
        </mxCell>
        <mxCell id="C1muyR43qbv9BoLMnWRT-215" value="Name of LMS" style="text;strokeColor=none;align=center;fillColor=none;html=1;verticalAlign=middle;whiteSpace=wrap;rounded=0;" vertex="1" parent="1">
          <mxGeometry x="633.9178260869564" y="840" width="152.17391304347825" height="30" as="geometry" />
        </mxCell>
        <mxCell id="C1muyR43qbv9BoLMnWRT-216" value="Welcome Message" style="text;strokeColor=none;align=center;fillColor=none;html=1;verticalAlign=middle;whiteSpace=wrap;rounded=0;" vertex="1" parent="1">
          <mxGeometry x="640" y="870" width="140" height="30" as="geometry" />
        </mxCell>
        <mxCell id="C1muyR43qbv9BoLMnWRT-217" value="Available Books" style="text;strokeColor=none;align=center;fillColor=none;html=1;verticalAlign=middle;whiteSpace=wrap;rounded=0;" vertex="1" parent="1">
          <mxGeometry x="640" y="900" width="140" height="30" as="geometry" />
        </mxCell>
        <mxCell id="C1muyR43qbv9BoLMnWRT-218" value="Your Borrowed Books" style="text;strokeColor=none;align=center;fillColor=none;html=1;verticalAlign=middle;whiteSpace=wrap;rounded=0;" vertex="1" parent="1">
          <mxGeometry x="640" y="1150" width="140" height="30" as="geometry" />
        </mxCell>
        <mxCell id="C1muyR43qbv9BoLMnWRT-220" value="Member Management" style="text;html=1;align=center;verticalAlign=middle;resizable=0;points=[];autosize=1;strokeColor=none;fillColor=none;" vertex="1" parent="1">
          <mxGeometry x="710" y="790" width="140" height="30" as="geometry" />
        </mxCell>
      </root>
    </mxGraphModel>
  </diagram>
</mxfile>
